<?xml version="1.0" encoding="UTF-8" standalone="no" ?>
<!DOCTYPE svg PUBLIC "-//W3C//DTD SVG 1.1//EN" "http://www.w3.org/Graphics/SVG/1.1/DTD/svg11.dtd">
<svg xmlns="http://www.w3.org/2000/svg" xmlns:xlink="http://www.w3.org/1999/xlink" version="1.1" width="430.40000000000003" height="358.65" xml:space="preserve">
<desc>Created with Fabric.js 1.6.0-rc.1</desc>
<defs></defs>
<g style="stroke: none; stroke-width: 1; stroke-dasharray: none; stroke-linecap: butt; stroke-linejoin: miter; stroke-miterlimit: 10; fill: none; fill-rule: nonzero; opacity: 1;" transform="translate(10 10) scale(0.8 0.66)" >
  <polygon points="324.27,469.33 187.73,469.33 204.8,401.07 307.2,401.07 " style="stroke: none; stroke-width: 1; stroke-dasharray: none; stroke-linecap: butt; stroke-linejoin: miter; stroke-miterlimit: 10; fill: #FFFFFF; fill-rule: nonzero; opacity: 1;" transform="  matrix(1 0 0 1 0 0) "/>
  <path d="M 503.467 59.733 c 0 -14.507 -11.093 -25.6 -25.6 -25.6 H 34.133 c -14.507 0 -25.6 11.093 -25.6 25.6 v 307.2 c 0 14.507 11.093 25.6 25.6 25.6 h 443.733 c 14.507 0 25.6 -11.093 25.6 -25.6 V 59.733 z" style="stroke: none; stroke-width: 1; stroke-dasharray: none; stroke-linecap: butt; stroke-linejoin: miter; stroke-miterlimit: 10; fill: #FFFFFF; fill-rule: nonzero; opacity: 1;" transform=" matrix(1 0 0 1 0 0) " stroke-linecap="round" />
  <path d="M 477.867 401.067 H 34.133 C 15.36 401.067 0 385.707 0 366.933 v -307.2 C 0 40.96 15.36 25.6 34.133 25.6 h 443.733 C 496.64 25.6 512 40.96 512 59.733 v 307.2 C 512 385.707 496.64 401.067 477.867 401.067 z M 34.133 42.667 c -9.387 0 -17.067 7.68 -17.067 17.067 v 307.2 c 0 9.387 7.68 17.067 17.067 17.067 h 443.733 c 9.387 0 17.067 -7.68 17.067 -17.067 v -307.2 c 0 -9.387 -7.68 -17.067 -17.067 -17.067 H 34.133 z" style="stroke: none; stroke-width: 1; stroke-dasharray: none; stroke-linecap: butt; stroke-linejoin: miter; stroke-miterlimit: 10; fill: #4D5152; fill-rule: nonzero; opacity: 1;" transform=" matrix(1 0 0 1 0 0) " stroke-linecap="round" />
  <rect x="280.73" y="426.64" rx="0" ry="0" width="69.97" height="17.07" style="stroke: none; stroke-width: 1; stroke-dasharray: none; stroke-linecap: butt; stroke-linejoin: miter; stroke-miterlimit: 10; fill: #4D5152; fill-rule: nonzero; opacity: 1;" transform=" matrix(-0.2425 -0.9701 0.9701 -0.2425 -29.9032 846.9955) "/>
  <rect x="187.72" y="400.21" rx="0" ry="0" width="17.07" height="69.97" style="stroke: none; stroke-width: 1; stroke-dasharray: none; stroke-linecap: butt; stroke-linejoin: miter; stroke-miterlimit: 10; fill: #4D5152; fill-rule: nonzero; opacity: 1;" transform=" matrix(-0.9702 -0.2422 0.2422 -0.9702 281.2662 904.9634) "/>
  <rect x="145.07" y="469.33" rx="0" ry="0" width="221.87" height="17.07" style="stroke: none; stroke-width: 1; stroke-dasharray: none; stroke-linecap: butt; stroke-linejoin: miter; stroke-miterlimit: 10; fill: #4D5152; fill-rule: nonzero; opacity: 1;" transform=" matrix(1 0 0 1 0 0) "/>
  <rect x="17.07" y="315.73" rx="0" ry="0" width="477.87" height="17.07" style="stroke: none; stroke-width: 1; stroke-dasharray: none; stroke-linecap: butt; stroke-linejoin: miter; stroke-miterlimit: 10; fill: #4D5152; fill-rule: nonzero; opacity: 1;" transform=" matrix(1 0 0 1 0 0) "/>
  <rect x="247.47" y="349.87" rx="0" ry="0" width="17.07" height="17.07" style="stroke: none; stroke-width: 1; stroke-dasharray: none; stroke-linecap: butt; stroke-linejoin: miter; stroke-miterlimit: 10; fill: #4D5152; fill-rule: nonzero; opacity: 1;" transform=" matrix(1 0 0 1 0 0) "/>
  <rect x="34.13" y="59.73" rx="0" ry="0" width="443.73" height="238.93" style="stroke: none; stroke-width: 1; stroke-dasharray: none; stroke-linecap: butt; stroke-linejoin: miter; stroke-miterlimit: 10; fill: #006e96; fill-rule: nonzero; opacity: 1;" transform=" matrix(1 0 0 1 0 0) "/>
  <rect x="247.47" y="264.53" rx="0" ry="0" width="17.07" height="17.07" style="stroke: none; stroke-width: 1; stroke-dasharray: none; stroke-linecap: butt; stroke-linejoin: miter; stroke-miterlimit: 10; fill: #4D5152; fill-rule: nonzero; opacity: 1;" transform=" matrix(1 0 0 1 0 0) "/>
  <rect x="281.6" y="264.53" rx="0" ry="0" width="17.07" height="17.07" style="stroke: none; stroke-width: 1; stroke-dasharray: none; stroke-linecap: butt; stroke-linejoin: miter; stroke-miterlimit: 10; fill: #4D5152; fill-rule: nonzero; opacity: 1;" transform=" matrix(1 0 0 1 0 0) "/>
  <rect x="315.73" y="264.53" rx="0" ry="0" width="17.07" height="17.07" style="stroke: none; stroke-width: 1; stroke-dasharray: none; stroke-linecap: butt; stroke-linejoin: miter; stroke-miterlimit: 10; fill: #4D5152; fill-rule: nonzero; opacity: 1;" transform=" matrix(1 0 0 1 0 0) "/>
  <rect x="213.33" y="264.53" rx="0" ry="0" width="17.07" height="17.07" style="stroke: none; stroke-width: 1; stroke-dasharray: none; stroke-linecap: butt; stroke-linejoin: miter; stroke-miterlimit: 10; fill: #4D5152; fill-rule: nonzero; opacity: 1;" transform=" matrix(1 0 0 1 0 0) "/>
  <rect x="179.2" y="264.53" rx="0" ry="0" width="17.07" height="17.07" style="stroke: none; stroke-width: 1; stroke-dasharray: none; stroke-linecap: butt; stroke-linejoin: miter; stroke-miterlimit: 10; fill: #4D5152; fill-rule: nonzero; opacity: 1;" transform=" matrix(1 0 0 1 0 0) "/>
</g>
<g style="stroke: none; stroke-width: 1; stroke-dasharray: none; stroke-linecap: butt; stroke-linejoin: miter; stroke-miterlimit: 10; fill: none; fill-rule: nonzero; opacity: 1;" transform="translate(144.60000000000002 64.94) scale(0.27 0.19)" >
  <path d="M 104.713 504.788 h 302.574 c 15.204 0 27.53 -12.326 27.53 -27.53 V 130.587 H 77.183 v 346.672 C 77.183 492.464 89.509 504.788 104.713 504.788 z" style="stroke: none; stroke-width: 1; stroke-dasharray: none; stroke-linecap: butt; stroke-linejoin: miter; stroke-miterlimit: 10; fill: #B27214; fill-rule: nonzero; opacity: 1;" transform=" matrix(1 0 0 1 0 0) " stroke-linecap="round" />
  <path d="M 407.287 7.212 H 104.713 c -15.205 0 -27.53 12.326 -27.53 27.53 v 95.845 h 357.634 V 34.742 C 434.817 19.537 422.491 7.212 407.287 7.212 z" style="stroke: none; stroke-width: 1; stroke-dasharray: none; stroke-linecap: butt; stroke-linejoin: miter; stroke-miterlimit: 10; fill: #E6E6E6; fill-rule: nonzero; opacity: 1;" transform=" matrix(1 0 0 1 0 0) " stroke-linecap="round" />
  <path d="M 130.287 7.212 h -25.574 c -15.205 0 -27.53 12.326 -27.53 27.53 v 95.845 h 25.574 V 34.742 C 102.757 19.537 115.082 7.212 130.287 7.212 z" style="stroke: none; stroke-width: 1; stroke-dasharray: none; stroke-linecap: butt; stroke-linejoin: miter; stroke-miterlimit: 10; fill: #CCCCCC; fill-rule: nonzero; opacity: 1;" transform=" matrix(1 0 0 1 0 0) " stroke-linecap="round" />
  <rect x="350.27" y="88.52" rx="0" ry="0" width="56.91" height="16.83" style="stroke: none; stroke-width: 1; stroke-dasharray: none; stroke-linecap: butt; stroke-linejoin: miter; stroke-miterlimit: 10; fill: #808080; fill-rule: nonzero; opacity: 1;" transform=" matrix(1 0 0 1 0 0) "/>
  <rect x="77.19" y="118.57" rx="0" ry="0" width="357.64" height="24.04" style="stroke: none; stroke-width: 1; stroke-dasharray: none; stroke-linecap: butt; stroke-linejoin: miter; stroke-miterlimit: 10; fill: #B27214; fill-rule: nonzero; opacity: 1;" transform=" matrix(1 0 0 1 0 0) "/>
  <path d="M 181.016 404.026 h 60.562 c 3.983 0 7.212 -3.228 7.212 -7.212 v -64.704 c 0 -3.983 -3.228 -7.212 -7.212 -7.212 h -60.562 c -3.983 0 -7.212 3.228 -7.212 7.212 v 64.704 C 173.804 400.798 177.033 404.026 181.016 404.026 z" style="stroke: none; stroke-width: 1; stroke-dasharray: none; stroke-linecap: butt; stroke-linejoin: miter; stroke-miterlimit: 10; fill: #8539f6; fill-rule: nonzero; opacity: 1;" transform=" matrix(1 0 0 1 0 0) " stroke-linecap="round" />
  <path d="M 270.423 404.026 h 60.562 c 3.983 0 7.212 -3.228 7.212 -7.212 v -64.704 c 0 -3.983 -3.228 -7.212 -7.212 -7.212 h -60.562 c -3.983 0 -7.212 3.228 -7.212 7.212 v 64.704 C 263.212 400.798 266.441 404.026 270.423 404.026 z" style="stroke: none; stroke-width: 1; stroke-dasharray: none; stroke-linecap: butt; stroke-linejoin: miter; stroke-miterlimit: 10; fill: #8539f6; fill-rule: nonzero; opacity: 1;" transform=" matrix(1 0 0 1 0 0) " stroke-linecap="round" />
  <path d="M 241.577 231.349 h -60.562 c -3.983 0 -7.212 3.228 -7.212 7.212 v 64.704 c 0 3.983 3.228 7.212 7.212 7.212 h 60.562 c 3.983 0 7.212 -3.228 7.212 -7.212 V 238.56 C 248.788 234.577 245.56 231.349 241.577 231.349 z" style="stroke: none; stroke-width: 1; stroke-dasharray: none; stroke-linecap: butt; stroke-linejoin: miter; stroke-miterlimit: 10; fill: #8539f6; fill-rule: nonzero; opacity: 1;" transform=" matrix(1 0 0 1 0 0) " stroke-linecap="round" />
  <path d="M 159.381 396.815 v -64.704 c 0 -3.983 -3.228 -7.212 -7.212 -7.212 H 84.395 c -3.983 0 -7.212 3.228 -7.212 7.212 v 64.704 c 0 3.983 3.228 7.212 7.212 7.212 h 67.774 C 156.151 404.026 159.381 400.798 159.381 396.815 z" style="stroke: none; stroke-width: 1; stroke-dasharray: none; stroke-linecap: butt; stroke-linejoin: miter; stroke-miterlimit: 10; fill: #8539f6; fill-rule: nonzero; opacity: 1;" transform=" matrix(1 0 0 1 0 0) " stroke-linecap="round" />
  <path d="M 330.985 231.349 h -60.562 c -3.983 0 -7.212 3.228 -7.212 7.212 v 64.704 c 0 3.983 3.228 7.212 7.212 7.212 h 60.562 c 3.983 0 7.212 -3.228 7.212 -7.212 V 238.56 C 338.197 234.577 334.969 231.349 330.985 231.349 z" style="stroke: none; stroke-width: 1; stroke-dasharray: none; stroke-linecap: butt; stroke-linejoin: miter; stroke-miterlimit: 10; fill: #8539f6; fill-rule: nonzero; opacity: 1;" transform=" matrix(1 0 0 1 0 0) " stroke-linecap="round" />
  <path d="M 152.169 231.349 H 84.395 c -3.983 0 -7.212 3.228 -7.212 7.212 v 64.704 c 0 3.983 3.228 7.212 7.212 7.212 h 67.774 c 3.983 0 7.212 -3.228 7.212 -7.212 V 238.56 C 159.381 234.577 156.151 231.349 152.169 231.349 z" style="stroke: none; stroke-width: 1; stroke-dasharray: none; stroke-linecap: butt; stroke-linejoin: miter; stroke-miterlimit: 10; fill: #8539f6; fill-rule: nonzero; opacity: 1;" transform=" matrix(1 0 0 1 0 0) " stroke-linecap="round" />
  <path d="M 330.985 418.45 h -60.562 c -3.983 0 -7.212 3.228 -7.212 7.212 v 71.915 c 0 3.983 3.228 7.212 7.212 7.212 h 60.562 c 3.983 0 7.212 -3.228 7.212 -7.212 v -71.915 C 338.197 421.679 334.969 418.45 330.985 418.45 z" style="stroke: none; stroke-width: 1; stroke-dasharray: none; stroke-linecap: butt; stroke-linejoin: miter; stroke-miterlimit: 10; fill: #8539f6; fill-rule: nonzero; opacity: 1;" transform=" matrix(1 0 0 1 0 0) " stroke-linecap="round" />
  <path d="M 159.381 209.714 v -71.917 c 0 -3.983 -3.228 -7.212 -7.212 -7.212 H 84.395 c -3.983 0 -7.212 3.228 -7.212 7.212 v 71.917 c 0 3.983 3.228 7.212 7.212 7.212 h 67.774 C 156.151 216.926 159.381 213.697 159.381 209.714 z" style="stroke: none; stroke-width: 1; stroke-dasharray: none; stroke-linecap: butt; stroke-linejoin: miter; stroke-miterlimit: 10; fill: #8539f6; fill-rule: nonzero; opacity: 1;" transform=" matrix(1 0 0 1 0 0) " stroke-linecap="round" />
  <path d="M 152.169 418.45 H 84.395 c -3.983 0 -7.212 3.228 -7.212 7.212 v 44.385 c 0 19.188 15.554 34.742 34.742 34.742 h 40.244 c 3.983 0 7.212 -3.228 7.212 -7.212 v -71.915 C 159.381 421.679 156.151 418.45 152.169 418.45 z" style="stroke: none; stroke-width: 1; stroke-dasharray: none; stroke-linecap: butt; stroke-linejoin: miter; stroke-miterlimit: 10; fill: #8539f6; fill-rule: nonzero; opacity: 1;" transform=" matrix(1 0 0 1 0 0) " stroke-linecap="round" />
  <path d="M 83.926 484.371 c 0 11.277 9.142 20.419 20.419 20.419 h 54.567 c 2.667 0 4.992 -1.452 6.239 -3.606 h -50.277 c -6.692 0 -12.118 -5.426 -12.118 -12.118 v -63.403 v -7.212 h -18.83 V 484.371 z" style="stroke: none; stroke-width: 1; stroke-dasharray: none; stroke-linecap: butt; stroke-linejoin: miter; stroke-miterlimit: 10; fill: #E09B2D; fill-rule: nonzero; opacity: 1;" transform=" matrix(1 0 0 1 0 0) " stroke-linecap="round" />
  <path d="M 352.62 137.797 v 71.917 c 0 3.983 3.228 7.212 7.212 7.212 h 67.774 c 3.983 0 7.212 3.228 7.212 7.212 l 0 0 c 0 3.983 -3.228 7.212 -7.212 7.212 h -67.774 c -3.983 0 -7.212 3.228 -7.212 7.212 v 64.704 c 0 3.983 3.228 7.212 7.212 7.212 h 67.774 c 3.983 0 7.212 3.228 7.212 7.212 l 0 0 c 0 3.983 -3.228 7.212 -7.212 7.212 h -67.774 c -3.983 0 -7.212 3.228 -7.212 7.212 v 165.467 c 0 3.983 3.228 7.212 7.212 7.212 h 40.243 c 19.187 0 34.741 -15.554 34.741 -34.741 V 137.797 c 0 -3.983 -3.228 -7.212 -7.212 -7.212 h -67.774 C 355.849 130.586 352.62 133.815 352.62 137.797 z" style="stroke: none; stroke-width: 1; stroke-dasharray: none; stroke-linecap: butt; stroke-linejoin: miter; stroke-miterlimit: 10; fill: #8539f6; fill-rule: nonzero; opacity: 1;" transform=" matrix(1 0 0 1 0 0) " stroke-linecap="round" />
  <path d="M 241.577 130.586 h -60.562 c -3.983 0 -7.212 3.228 -7.212 7.212 v 71.917 c 0 3.983 3.228 7.212 7.212 7.212 h 60.562 c 3.983 0 7.212 -3.228 7.212 -7.212 v -71.917 C 248.788 133.815 245.56 130.586 241.577 130.586 z" style="stroke: none; stroke-width: 1; stroke-dasharray: none; stroke-linecap: butt; stroke-linejoin: miter; stroke-miterlimit: 10; fill: #8539f6; fill-rule: nonzero; opacity: 1;" transform=" matrix(1 0 0 1 0 0) " stroke-linecap="round" />
  <path d="M 263.212 137.797 v 71.917 c 0 3.983 3.228 7.212 7.212 7.212 h 60.562 c 3.983 0 7.212 -3.228 7.212 -7.212 v -71.917 c 0 -3.983 -3.228 -7.212 -7.212 -7.212 h -60.562 C 266.441 130.586 263.212 133.815 263.212 137.797 z" style="stroke: none; stroke-width: 1; stroke-dasharray: none; stroke-linecap: butt; stroke-linejoin: miter; stroke-miterlimit: 10; fill: #8539f6; fill-rule: nonzero; opacity: 1;" transform=" matrix(1 0 0 1 0 0) " stroke-linecap="round" />
  <path d="M 248.788 497.577 v -71.915 c 0 -3.983 -3.228 -7.212 -7.212 -7.212 h -60.562 c -3.983 0 -7.212 3.228 -7.212 7.212 v 71.915 c 0 3.983 3.228 7.212 7.212 7.212 h 60.562 C 245.56 504.788 248.788 501.56 248.788 497.577 z" style="stroke: none; stroke-width: 1; stroke-dasharray: none; stroke-linecap: butt; stroke-linejoin: miter; stroke-miterlimit: 10; fill: #8539f6; fill-rule: nonzero; opacity: 1;" transform=" matrix(1 0 0 1 0 0) " stroke-linecap="round" />
  <path d="M 408.979 512 H 103.021 c -18.224 0 -33.05 -14.826 -33.05 -33.05 V 33.05 C 69.971 14.826 84.797 0 103.021 0 h 305.958 c 18.224 0 33.05 14.826 33.05 33.05 V 478.95 C 442.029 497.175 427.203 512 408.979 512 z M 103.021 14.423 c -10.271 0 -18.626 8.356 -18.626 18.626 V 478.95 c 0 10.271 8.356 18.626 18.626 18.626 h 305.958 c 10.271 0 18.626 -8.356 18.626 -18.626 V 33.05 c 0 -10.271 -8.356 -18.626 -18.626 -18.626 H 103.021 z" style="stroke: none; stroke-width: 1; stroke-dasharray: none; stroke-linecap: butt; stroke-linejoin: miter; stroke-miterlimit: 10; fill: #B27214; fill-rule: nonzero; opacity: 1;" transform=" matrix(1 0 0 1 0 0) " stroke-linecap="round" />
  <rect x="84.4" y="324.9" rx="0" ry="0" width="18.36" height="79.13" style="stroke: none; stroke-width: 1; stroke-dasharray: none; stroke-linecap: butt; stroke-linejoin: miter; stroke-miterlimit: 10; fill: #E09B2D; fill-rule: nonzero; opacity: 1;" transform=" matrix(1 0 0 1 0 0) "/>
  <rect x="84.4" y="231.35" rx="0" ry="0" width="18.36" height="79.13" style="stroke: none; stroke-width: 1; stroke-dasharray: none; stroke-linecap: butt; stroke-linejoin: miter; stroke-miterlimit: 10; fill: #E09B2D; fill-rule: nonzero; opacity: 1;" transform=" matrix(1 0 0 1 0 0) "/>
  <rect x="84.4" y="130.59" rx="0" ry="0" width="18.36" height="86.34" style="stroke: none; stroke-width: 1; stroke-dasharray: none; stroke-linecap: butt; stroke-linejoin: miter; stroke-miterlimit: 10; fill: #E09B2D; fill-rule: nonzero; opacity: 1;" transform=" matrix(1 0 0 1 0 0) "/>
</g>
<g style="stroke: none; stroke-width: 1; stroke-dasharray: none; stroke-linecap: butt; stroke-linejoin: miter; stroke-miterlimit: 10; fill: none; fill-rule: nonzero; opacity: 1;" transform="translate(283.23 224.39999999999998) scale(0.25 0.25)" >
  <polygon points="376,392 376,40 24,40 24,496 268.8,496 " style="stroke: none; stroke-width: 1; stroke-dasharray: none; stroke-linecap: butt; stroke-linejoin: miter; stroke-miterlimit: 10; fill: #FFFFFF; fill-rule: nonzero; opacity: 1;" transform="  matrix(1 0 0 1 0 0) "/>
  <polyline points="376,392 376,40 24,40 " style="stroke: none; stroke-width: 1; stroke-dasharray: none; stroke-linecap: butt; stroke-linejoin: miter; stroke-miterlimit: 10; fill: #EAEAEA; fill-rule: nonzero; opacity: 1;" transform="  matrix(1 0 0 1 0 0) "/>
  <rect x="24" y="0" rx="0" ry="0" width="352" height="56" style="stroke: none; stroke-width: 1; stroke-dasharray: none; stroke-linecap: butt; stroke-linejoin: miter; stroke-miterlimit: 10; fill: #04AF76; fill-rule: nonzero; opacity: 1;" transform=" matrix(1 0 0 1 0 0) "/>
  <polyline points="24,0 376,0 376,56 " style="stroke: none; stroke-width: 1; stroke-dasharray: none; stroke-linecap: butt; stroke-linejoin: miter; stroke-miterlimit: 10; fill: #008C61; fill-rule: nonzero; opacity: 1;" transform="  matrix(1 0 0 1 0 0) "/>
  <circle cx="120.80000000000001" cy="178.4" r="59.2" style="stroke: none; stroke-width: 1; stroke-dasharray: none; stroke-linecap: butt; stroke-linejoin: miter; stroke-miterlimit: 10; fill: #32BA7C; fill-rule: nonzero; opacity: 1;" transform="  matrix(1 0 0 1 0 0) "/>
  <path d="M 105.6 204.8 l 30.4 30.4 c 25.6 -6.4 44 -29.6 44 -57.6 c 0 -0.8 0 -0.8 0 -1.6 l -23.2 -22.4 L 105.6 204.8 z" style="stroke: none; stroke-width: 1; stroke-dasharray: none; stroke-linecap: butt; stroke-linejoin: miter; stroke-miterlimit: 10; fill: #0AA06E; fill-rule: nonzero; opacity: 1;" transform=" matrix(1 0 0 1 0 0) " stroke-linecap="round" />
  <path d="M 122.4 192 c 2.4 2.4 2.4 7.2 0 9.6 l -5.6 5.6 c -2.4 2.4 -7.2 2.4 -9.6 0 l -24 -24 c -2.4 -2.4 -2.4 -7.2 0 -9.6 l 5.6 -5.6 c 2.4 -2.4 7.2 -2.4 9.6 0 L 122.4 192 z" style="stroke: none; stroke-width: 1; stroke-dasharray: none; stroke-linecap: butt; stroke-linejoin: miter; stroke-miterlimit: 10; fill: #FFFFFF; fill-rule: nonzero; opacity: 1;" transform=" matrix(1 0 0 1 0 0) " stroke-linecap="round" />
  <path d="M 143.2 150.4 c 2.4 -2.4 7.2 -2.4 9.6 0 l 5.6 5.6 c 2.4 2.4 2.4 7.2 0 9.6 l -41.6 41.6 c -2.4 2.4 -7.2 2.4 -9.6 0 l -5.6 -5.6 c -2.4 -2.4 -2.4 -7.2 0 -9.6 L 143.2 150.4 z" style="stroke: none; stroke-width: 1; stroke-dasharray: none; stroke-linecap: butt; stroke-linejoin: miter; stroke-miterlimit: 10; fill: #FFFFFF; fill-rule: nonzero; opacity: 1;" transform=" matrix(1 0 0 1 0 0) " stroke-linecap="round" />
  <circle cx="120.80000000000001" cy="353.59999999999997" r="59.2" style="stroke: none; stroke-width: 1; stroke-dasharray: none; stroke-linecap: butt; stroke-linejoin: miter; stroke-miterlimit: 10; fill: #32BA7C; fill-rule: nonzero; opacity: 1;" transform="  matrix(1 0 0 1 0 0) "/>
  <path d="M 105.6 380 l 30.4 30.4 c 25.6 -6.4 44 -29.6 44 -57.6 c 0 -0.8 0 -0.8 0 -1.6 l -23.2 -22.4 L 105.6 380 z" style="stroke: none; stroke-width: 1; stroke-dasharray: none; stroke-linecap: butt; stroke-linejoin: miter; stroke-miterlimit: 10; fill: #0AA06E; fill-rule: nonzero; opacity: 1;" transform=" matrix(1 0 0 1 0 0) " stroke-linecap="round" />
  <path d="M 122.4 366.4 c 2.4 2.4 2.4 7.2 0 9.6 l -5.6 5.6 c -2.4 2.4 -7.2 2.4 -9.6 0 l -24 -24 c -2.4 -2.4 -2.4 -7.2 0 -9.6 l 5.6 -5.6 c 2.4 -2.4 7.2 -2.4 9.6 0 L 122.4 366.4 z" style="stroke: none; stroke-width: 1; stroke-dasharray: none; stroke-linecap: butt; stroke-linejoin: miter; stroke-miterlimit: 10; fill: #FFFFFF; fill-rule: nonzero; opacity: 1;" transform=" matrix(1 0 0 1 0 0) " stroke-linecap="round" />
  <path d="M 143.2 324.8 c 2.4 -2.4 7.2 -2.4 9.6 0 l 5.6 5.6 c 2.4 2.4 2.4 7.2 0 9.6 l -41.6 41.6 c -2.4 2.4 -7.2 2.4 -9.6 0 l -5.6 -5.6 c -2.4 -2.4 -2.4 -7.2 0 -9.6 L 143.2 324.8 z" style="stroke: none; stroke-width: 1; stroke-dasharray: none; stroke-linecap: butt; stroke-linejoin: miter; stroke-miterlimit: 10; fill: #FFFFFF; fill-rule: nonzero; opacity: 1;" transform=" matrix(1 0 0 1 0 0) " stroke-linecap="round" />
  <polygon points="376,392 272,392 272,492.8 " style="stroke: none; stroke-width: 1; stroke-dasharray: none; stroke-linecap: butt; stroke-linejoin: miter; stroke-miterlimit: 10; fill: #C9C9C9; fill-rule: nonzero; opacity: 1;" transform="  matrix(1 0 0 1 0 0) "/>
  <path d="M 338.4 352 c 0 5.6 -4.8 8 -10.4 8 H 215.2 c -5.6 0 -10.4 -2.4 -10.4 -8 l 0 0 c 0 -5.6 4.8 -8 10.4 -8 H 328 C 333.6 344 338.4 346.4 338.4 352 L 338.4 352 z" style="stroke: none; stroke-width: 1; stroke-dasharray: none; stroke-linecap: butt; stroke-linejoin: miter; stroke-miterlimit: 10; fill: #E2A750; fill-rule: nonzero; opacity: 1;" transform=" matrix(1 0 0 1 0 0) " stroke-linecap="round" />
  <path d="M 338.4 176 c 0 5.6 -4.8 8 -10.4 8 H 215.2 c -5.6 0 -10.4 -2.4 -10.4 -8 l 0 0 c 0 -5.6 4.8 -8 10.4 -8 H 328 C 333.6 168 338.4 170.4 338.4 176 L 338.4 176 z" style="stroke: none; stroke-width: 1; stroke-dasharray: none; stroke-linecap: butt; stroke-linejoin: miter; stroke-miterlimit: 10; fill: #E2A750; fill-rule: nonzero; opacity: 1;" transform=" matrix(1 0 0 1 0 0) " stroke-linecap="round" />
  <path d="M 408 80 v 316 c 0 17.6 14.4 22.4 32 22.4 s 32 -4.8 32 -22.4 V 80 H 408 z" style="stroke: none; stroke-width: 1; stroke-dasharray: none; stroke-linecap: butt; stroke-linejoin: miter; stroke-miterlimit: 10; fill: #E2A750; fill-rule: nonzero; opacity: 1;" transform=" matrix(1 0 0 1 0 0) " stroke-linecap="round" />
  <path d="M 432 80 v 316 c 0 17.6 4.8 22.4 12 22.4 s 12 -4.8 12 -22.4 V 80 H 432 z" style="stroke: none; stroke-width: 1; stroke-dasharray: none; stroke-linecap: butt; stroke-linejoin: miter; stroke-miterlimit: 10; fill: #F9D264; fill-rule: nonzero; opacity: 1;" transform=" matrix(1 0 0 1 0 0) " stroke-linecap="round" />
  <path d="M 472 72 V 40.8 c 0 -17.6 -14.4 -22.4 -32 -22.4 s -32 4.8 -32 22.4 V 72 H 472 z" style="stroke: none; stroke-width: 1; stroke-dasharray: none; stroke-linecap: butt; stroke-linejoin: miter; stroke-miterlimit: 10; fill: #C61867; fill-rule: nonzero; opacity: 1;" transform=" matrix(1 0 0 1 0 0) " stroke-linecap="round" />
  <path d="M 472 72 V 40.8 c 0 -17.6 -14.4 -22.4 -32 -22.4" style="stroke: none; stroke-width: 1; stroke-dasharray: none; stroke-linecap: butt; stroke-linejoin: miter; stroke-miterlimit: 10; fill: #9E085A; fill-rule: nonzero; opacity: 1;" transform=" matrix(1 0 0 1 0 0) " stroke-linecap="round" />
  <polygon points="408,404.8 440,464 472,404.8 " style="stroke: none; stroke-width: 1; stroke-dasharray: none; stroke-linecap: butt; stroke-linejoin: miter; stroke-miterlimit: 10; fill: #EADCA2; fill-rule: nonzero; opacity: 1;" transform="  matrix(1 0 0 1 0 0) "/>
  <polygon points="440,404.8 440,464 472,404.8 " style="stroke: none; stroke-width: 1; stroke-dasharray: none; stroke-linecap: butt; stroke-linejoin: miter; stroke-miterlimit: 10; fill: #D1C593; fill-rule: nonzero; opacity: 1;" transform="  matrix(1 0 0 1 0 0) "/>
  <polygon points="426.4,437.6 440,464 453.6,437.6 " style="stroke: none; stroke-width: 1; stroke-dasharray: none; stroke-linecap: butt; stroke-linejoin: miter; stroke-miterlimit: 10; fill: #44390A; fill-rule: nonzero; opacity: 1;" transform="  matrix(1 0 0 1 0 0) "/>
</g>
</svg>